<svg width="28" height="28" viewBox="0 0 28 28" fill="none" xmlns="http://www.w3.org/2000/svg">
<circle cx="14" cy="14" r="14" fill="#C0C2F8" fill-opacity="0.22"/>
<path d="M13.9452 8.00019C12.0414 8.001 10.2531 8.91341 9.13482 10.4543C8.01639 11.9955 7.70288 13.9788 8.29154 15.7896C8.88037 17.6005 10.2999 19.0202 12.1106 19.6086C13.9212 20.1968 15.9039 19.8825 17.4441 18.7632L20.4064 21.7265C20.6422 21.9623 20.986 22.0545 21.3081 21.9682C21.6303 21.8818 21.8818 21.6302 21.9682 21.3079C22.0544 20.9856 21.9624 20.6418 21.7266 20.4059L18.7643 17.4427C19.6295 16.2531 20.023 14.7849 19.8689 13.3219C19.7147 11.8589 19.0238 10.5051 17.9296 9.52208C16.8356 8.53904 15.4159 7.99676 13.9454 8.00001L13.9452 8.00019ZM13.9452 18.0332C12.8626 18.0332 11.8244 17.603 11.0588 16.8372C10.2933 16.0715 9.86331 15.0329 9.86331 13.95C9.86331 12.867 10.2933 11.8285 11.0588 11.0627C11.8244 10.2969 12.8626 9.86679 13.9452 9.86679C15.0278 9.86679 16.066 10.2969 16.8315 11.0627C17.597 11.8285 18.027 12.867 18.027 13.95C18.0257 15.0324 17.5954 16.0703 16.8301 16.8358C16.0649 17.6014 15.0273 18.0319 13.9452 18.0332Z" fill="#FF5C00"/>
</svg>
